PathFileType  4	(X/Y/Z)
DataRate	CameraRate	NumFrames	NumMarkers	Units	OrigDataRate	OrigDataStartFrame	OrigNumFrames
	100.0 	100.0	6	50	mm	100.0	1	265
Frame#	Time	R.Shoulder			R.Clavicle			R.Bicep			R.Elbow			R.Forearm			R.Wrist			L.Shoulder			L.Clavicle			L.Scapula			L.Bicep			L.Elbow			L.Forearm			L.Wrist			R.ASIS			R.Iliac			S2			L.Iliac			L.ASIS			R.TH1			R.TH2			R.TH3			R.Knee			R.SH1			R.SH2			R.SH3			R.SH4			R.Ankle			R.Heel			R.MT5			L.TH1			L.TH2			L.TH3			L.TH4			L.Knee			L.SH1			L.SH2			L.SH3			L.Ankle			L.Heel			L.MT5			R.MKnee			L.MKnee			R.MAnkle			L.MAnkle			R.MElbow			L.MElbow			R.PSIS			L.PSIS			R_HJC			L_HJC			
		X1	Y1	Z1	X2	Y2	Z2	X3	Y3	Z3	X4	Y4	Z4	X5	Y5	Z5	X6	Y6	Z6	X7	Y7	Z7	X8	Y8	Z8	X9	Y9	Z9	X10	Y10	Z10	X11	Y11	Z11	X12	Y12	Z12	X13	Y13	Z13	X14	Y14	Z14	X15	Y15	Z15	X16	Y16	Z16	X17	Y17	Z17	X18	Y18	Z18	X19	Y19	Z19	X20	Y20	Z20	X21	Y21	Z21	X22	Y22	Z22	X23	Y23	Z23	X24	Y24	Z24	X25	Y25	Z25	X26	Y26	Z26	X27	Y27	Z27	X28	Y28	Z28	X29	Y29	Z29	X30	Y30	Z30	X31	Y31	Z31	X32	Y32	Z32	X33	Y33	Z33	X34	Y34	Z34	X35	Y35	Z35	X36	Y36	Z36	X37	Y37	Z37	X38	Y38	Z38	X39	Y39	Z39	X40	Y40	Z40	X41	Y41	Z41	X42	Y42	Z42	X43	Y43	Z43	X44	Y44	Z44	X45	Y45	Z45	X46	Y46	Z46	X47	Y47	Z47	X48	Y48	Z48	X49	Y49	Z49	X50	Y50	Z50	

1	0.00000	268.491	1.684	1424.335	333.811	160.725	1412.862	289.829	-13.341	1248.883	213.971	-56.033	1112.781	310.989	-51.000	995.151	313.863	-90.641	891.924	224.423	390.354	1429.549	338.055	225.691	1415.181	130.282	249.080	1314.032	267.442	394.385	1259.938	188.947	424.378	1121.825	271.246	435.684	1008.440	260.947	460.988	889.621	357.426	44.003	957.642	263.136	30.171	1045.259	177.842	197.226	990.095	284.668	352.036	1038.203	375.677	320.881	951.404	367.993	66.701	717.429	353.248	77.082	632.353	239.173	-15.921	639.923	220.585	15.934	496.381	275.127	47.000	361.128	268.512	50.344	287.500	173.735	-7.424	366.154	165.649	-2.543	292.520	209.089	34.229	99.961	144.881	95.344	54.492	332.734	4.659	35.421	373.255	343.106	745.904	368.261	332.512	661.549	231.485	393.089	750.337	227.587	381.387	662.924	236.925	357.843	501.976	266.678	351.690	378.222	266.088	352.898	302.754	151.569	363.376	302.132	211.716	349.686	95.045	149.521	283.934	42.412	324.144	386.794	35.269	216.130	165.958	500.593	236.872	208.717	502.530	247.077	129.097	116.017	242.469	256.110	109.951	232.398	49.950	1092.821	242.211	323.023	1100.022	177.185	146.087	1006.012	185.622	246.757	1003.916	275.571	84.174	870.807	286.804	293.635	866.440
2	0.01000	268.366	1.584	1423.923	333.659	160.739	1412.774	289.828	-13.266	1248.744	213.958	-56.114	1112.715	310.989	-51.000	995.151	313.556	-90.463	891.889	224.420	390.455	1429.490	338.055	225.691	1415.181	130.017	249.178	1314.046	267.394	394.553	1259.974	189.064	424.624	1121.704	271.017	435.719	1008.430	260.736	461.079	889.519	357.426	44.003	957.642	262.706	30.104	1045.374	177.794	197.218	989.880	284.806	352.143	1038.272	375.788	321.080	951.618	367.830	66.728	717.413	353.248	77.082	632.353	239.142	-15.866	639.989	220.762	15.815	496.215	275.123	46.920	360.991	268.189	50.210	287.405	173.602	-7.397	366.136	165.649	-2.543	292.520	209.089	34.229	99.961	144.982	95.359	54.513	332.670	4.587	35.284	373.255	343.106	745.904	368.231	332.696	661.559	231.325	393.155	750.493	227.564	381.462	662.851	236.986	357.777	501.882	266.593	351.577	378.270	266.088	352.898	302.754	151.569	363.376	302.132	211.816	349.720	95.073	149.745	283.927	42.409	324.248	386.823	35.383	216.114	166.075	500.525	236.872	208.717	502.530	246.978	128.999	115.916	242.129	255.990	109.899	232.333	50.062	1092.778	242.211	323.023	1100.022	177.226	146.153	1005.895	185.637	246.711	1003.801	275.688	84.233	870.799	287.050	293.689	866.501
3	0.02000	268.225	1.665	1424.265	333.618	160.882	1412.622	289.809	-13.098	1248.786	214.022	-56.029	1112.874	310.848	-50.810	995.132	311.669	-90.118	892.565	224.038	390.384	1429.554	337.867	226.035	1415.040	130.017	249.178	1314.046	267.372	394.679	1259.939	188.670	424.646	1121.665	270.797	435.779	1008.320	260.719	461.157	889.388	355.596	44.350	957.859	263.136	30.171	1045.259	177.794	197.218	989.880	284.668	352.036	1038.203	375.788	321.080	951.618	367.830	66.728	717.413	353.248	77.082	632.353	239.229	-15.830	640.105	220.762	15.815	496.215	275.123	46.920	360.991	268.506	50.429	287.602	173.836	-7.361	366.224	165.649	-2.543	292.520	209.089	34.229	99.961	144.881	95.344	54.492	332.670	4.587	35.284	373.255	343.106	745.904	368.270	332.744	661.480	231.277	393.328	750.654	227.564	381.462	662.851	236.986	357.777	501.882	266.617	351.689	378.300	266.088	352.898	302.754	151.569	363.376	302.132	211.816	349.720	95.073	149.633	283.992	42.434	324.386	386.718	35.367	216.341	166.116	500.510	236.872	208.717	502.530	246.922	129.166	115.994	242.469	256.110	109.951	231.992	50.229	1092.658	242.064	323.085	1099.867	177.523	145.961	1005.645	185.652	246.665	1003.687	275.308	84.239	870.730	286.844	293.686	866.437
4	0.03000	268.002	1.724	1424.364	333.448	161.025	1412.482	289.727	-13.054	1248.863	214.004	-55.896	1112.812	310.793	-50.572	995.132	311.675	-90.038	892.492	224.038	390.384	1429.554	337.867	226.035	1415.040	130.034	249.289	1313.940	267.219	394.874	1260.032	188.537	424.655	1121.665	270.797	435.779	1008.320	260.333	461.139	889.103	355.596	44.350	957.859	262.706	30.104	1045.374	177.794	197.218	989.880	284.519	352.134	1038.134	375.788	321.080	951.618	367.847	66.839	717.518	353.248	77.082	632.353	238.999	-15.788	640.120	220.762	15.815	496.215	275.127	47.000	361.128	268.460	50.591	287.421	173.811	-7.203	366.290	165.649	-2.543	292.520	209.089	34.229	99.961	144.982	95.359	54.513	332.633	4.664	35.445	373.350	343.330	745.994	368.252	332.929	661.488	231.214	393.133	750.647	227.564	381.462	662.851	236.804	357.867	501.840	266.615	351.666	378.285	266.112	352.960	302.805	151.601	363.390	302.100	211.816	349.720	95.073	149.745	283.927	42.409	324.415	386.718	35.415	216.341	166.116	500.510	237.043	208.950	502.425	246.801	129.392	116.345	242.129	255.990	109.899	231.641	50.634	1092.711	242.376	323.277	1099.643	177.226	146.153	1005.895	185.652	246.665	1003.687	275.146	84.215	870.814	286.786	293.654	866.444
5	0.04000	267.720	1.856	1423.885	333.571	161.027	1412.574	289.644	-13.010	1248.939	213.958	-55.777	1112.864	310.711	-50.506	995.056	312.084	-90.236	892.314	223.974	390.573	1429.419	337.651	226.154	1415.027	130.034	249.289	1313.940	267.219	394.874	1260.032	188.537	424.655	1121.665	270.694	435.772	1008.441	260.214	461.353	888.967	355.596	44.350	957.859	262.706	30.104	1045.374	177.794	197.218	989.880	284.819	352.315	1037.968	375.788	321.080	951.618	367.656	66.897	717.457	353.248	77.082	632.353	238.999	-15.788	640.120	220.662	16.039	496.370	275.127	47.000	361.128	268.460	50.591	287.421	173.832	-7.314	366.324	165.649	-2.543	292.520	209.089	34.229	99.961	144.982	95.359	54.513	332.921	4.795	35.541	373.649	343.542	746.301	368.445	333.115	661.778	231.346	393.390	750.544	227.647	381.577	662.702	236.804	357.867	501.840	266.639	351.711	378.252	266.087	353.094	302.996	151.531	363.453	302.064	211.716	349.686	95.045	149.521	283.934	42.412	324.144	386.794	35.269	216.341	166.116	500.510	237.043	208.950	502.425	246.801	129.392	116.345	242.557	256.141	110.073	231.274	50.841	1092.714	242.376	323.277	1099.643	176.976	146.338	1005.988	185.637	246.711	1003.801	275.019	84.233	870.839	286.766	293.665	866.407
6	0.05000	267.632	2.011	1423.854	333.571	161.027	1412.574	289.704	-12.995	1249.021	213.826	-55.711	1113.020	310.487	-50.355	995.208	312.064	-90.109	892.311	223.709	390.475	1429.513	337.738	226.371	1415.076	129.818	249.440	1313.840	267.043	394.756	1259.857	188.336	424.678	1121.715	270.419	436.061	1008.586	260.214	461.353	888.967	355.598	44.409	958.068	263.136	30.171	1045.259	177.762	197.406	990.194	284.519	352.134	1038.134	375.788	321.080	951.618	368.017	66.834	717.538	353.125	77.232	632.449	238.999	-15.788	640.120	220.798	16.161	496.271	275.204	47.243	361.205	268.460	50.591	287.421	173.811	-7.203	366.290	165.476	-2.525	292.671	209.089	34.229	99.961	144.881	95.344	54.492	333.058	4.759	35.614	373.579	343.730	746.373	368.287	333.199	661.682	231.399	393.299	750.287	227.647	381.577	662.702	236.804	357.867	501.840	266.700	351.712	378.174	266.087	353.094	302.996	151.531	363.453	302.064	211.560	349.593	95.165	149.590	283.985	42.513	324.379	386.799	35.350	216.308	166.301	500.621	237.043	208.950	502.425	246.801	129.392	116.345	242.557	256.141	110.073	231.368	50.830	1092.561	242.376	323.277	1099.643	176.976	146.338	1005.988	185.472	246.861	1004.070	275.010	84.327	870.914	286.604	293.769	866.547
